<?xml version="1.0" encoding="UTF-8" standalone="no"?>
<!-- Created with Inkscape (http://www.inkscape.org/) -->

<svg
   xmlns:dc="http://purl.org/dc/elements/1.1/"
   xmlns:cc="http://creativecommons.org/ns#"
   xmlns:rdf="http://www.w3.org/1999/02/22-rdf-syntax-ns#"
   xmlns:svg="http://www.w3.org/2000/svg"
   xmlns="http://www.w3.org/2000/svg"
   xmlns:sodipodi="http://sodipodi.sourceforge.net/DTD/sodipodi-0.dtd"
   xmlns:inkscape="http://www.inkscape.org/namespaces/inkscape"
   id="svg2"
   viewBox="0 0 99.999997 98.624661"
   version="1.0"
   sodipodi:docname="souris.svg"
   width="100"
   height="98.624664"
   inkscape:version="0.92.5 (2060ec1f9f, 2020-04-08)">
  <defs
     id="defs28" />
  <sodipodi:namedview
     pagecolor="#ffffff"
     bordercolor="#666666"
     borderopacity="1"
     objecttolerance="10"
     gridtolerance="10"
     guidetolerance="10"
     inkscape:pageopacity="0"
     inkscape:pageshadow="2"
     inkscape:window-width="1920"
     inkscape:window-height="1043"
     id="namedview26"
     showgrid="false"
     fit-margin-top="0"
     fit-margin-left="0"
     fit-margin-right="0"
     fit-margin-bottom="0"
     inkscape:zoom="0.7240374"
     inkscape:cx="165.24304"
     inkscape:cy="163.00443"
     inkscape:window-x="0"
     inkscape:window-y="0"
     inkscape:window-maximized="1"
     inkscape:current-layer="svg2" />
  <path
     id="path3264"
     style="fill:#cccccc;fill-rule:evenodd;stroke:#000000;stroke-width:1.21034956"
     d="M 68.727592,15.721337 C 68.155702,8.6734672 45.10762,-10.184683 24.915963,8.8637972 4.7237019,27.912277 3.0092417,18.959627 1.1044541,19.340587 c -1.90487847,0.38096 1.8959521,4.50643 7.2384956,3.80957 C 21.486438,21.436007 30.248764,5.0542272 42.438497,5.2445472 54.723545,5.4366972 61.298769,16.102297 61.298769,16.102297 l 7.428521,-0.38096 z"
     inkscape:connector-curvature="0" />
  <path
     id="path2407"
     style="fill:#000000;fill-opacity:0.31373004;fill-rule:evenodd;stroke-width:0.30258739"
     d="m 42.420644,3.3727472 c -5.464728,0.0629 -11.37426,2.21464 -17.030829,7.8860298 -5.207226,5.22175 -9.041008,8.2207 -11.904998,9.87191 v 0.58612 C 23.932554,17.284507 31.908758,5.0802472 42.4388,5.2448572 54.723848,5.4366972 61.29302,16.100177 61.29302,16.100177 l 2.856425,-0.14191 C 61.946609,10.968597 53.017255,3.2501972 42.420644,3.3727472 Z"
     inkscape:connector-curvature="0" />
  <path
     id="path2383"
     style="fill:#cccccc;stroke:#000000;stroke-width:1.21034956;stroke-linecap:round"
     d="m 95.96651,45.817287 c 0,17.24445 -18.705953,48.95561 -31.239123,48.95561 -12.887197,0 -31.239123,-31.71116 -31.239123,-48.95561 0,-17.24355 13.994667,-31.23913 31.239123,-31.23913 17.244456,3.1e-4 31.239123,13.99558 31.239123,31.23913 z"
     inkscape:connector-curvature="0" />
  <path
     id="path3397"
     style="fill:#000000;fill-opacity:0.31373004;stroke-width:0.30258739"
     d="m 95.545913,40.718687 c 0.07565,0.88355 0.114983,1.77316 0.114983,2.67487 0,17.24446 -18.699901,48.96167 -31.233071,48.96167 -11.752494,0 -28.058929,-26.37957 -30.836681,-44.10211 1.546222,17.62571 18.839091,46.52281 31.139269,46.52281 12.53317,0 31.233071,-31.71721 31.233071,-48.96167 0,-1.73685 -0.145242,-3.43739 -0.417571,-5.09557 z"
     inkscape:connector-curvature="0" />
  <path
     id="path2386"
     style="fill:#cccccc;stroke:#000000;stroke-width:1.21034956;stroke-linecap:round"
     d="m 86.441058,70.502367 c 7.271176,-0.71411 12.953767,-6.84756 12.953767,-14.30634 0,-7.93686 -6.445112,-14.38197 -14.381979,-14.38197 -7.939893,0 -14.381979,6.44511 -14.381979,14.38197 0,0.55979 0.03026,1.11353 0.0938,1.65516"
     inkscape:connector-curvature="0" />
  <path
     id="path2388"
     style="fill:#cccccc;stroke:#000000;stroke-width:1.21034956;stroke-linecap:round"
     d="m 57.749722,58.011557 c 0.07565,-0.59307 0.114983,-1.20127 0.114983,-1.81553 0,-7.93686 -6.433008,-14.38197 -14.372901,-14.38197 -7.939894,0 -14.382584,6.44511 -14.382584,14.38197 0,7.64336 5.964602,13.89784 13.492977,14.35475"
     inkscape:connector-curvature="0" />
  <path
     id="path2390"
     style="fill:#000000;stroke-width:0.30258739"
     d="m 68.179909,88.221877 c 0,1.85487 -2.217965,4.07586 -3.35872,4.07586 -1.28297,0 -3.35872,-2.22099 -3.35872,-4.07586 0,-1.85183 1.503859,-1.64304 3.35872,-1.64304 1.854861,0 3.35872,-0.20879 3.35872,1.64304 z"
     inkscape:connector-curvature="0" />
  <path
     id="path2397"
     style="fill:#000000;stroke:#000000;stroke-width:0.60517478;stroke-linecap:round"
     d="m 58.058361,75.818827 c 0.003,1.73685 -1.065108,3.14388 -2.381363,3.14388 -1.313229,0 -2.381363,-1.40703 -2.378337,-3.14388 -0.003,-1.73685 1.065108,-3.14389 2.378337,-3.14389 1.316255,0 2.384389,1.40704 2.381363,3.14389 z"
     inkscape:connector-curvature="0" />
  <path
     id="path2399"
     style="fill:#000000;stroke:#000000;stroke-width:0.60517478;stroke-linecap:round"
     d="m 75.202963,75.818827 c 0,1.73685 -1.065108,3.14388 -2.381363,3.14388 -1.316255,0 -2.381363,-1.40703 -2.381363,-3.14388 0,-1.73685 1.065108,-3.14389 2.381363,-3.14389 1.316255,0 2.381363,1.40704 2.381363,3.14389 z"
     inkscape:connector-curvature="0" />
  <path
     id="path2401"
     style="fill:#ffffff;stroke-width:0.30258739"
     d="m 56.630148,75.089587 c 0,0.5961 -0.296535,1.07721 -0.665692,1.07721 -0.369157,0 -0.665692,-0.48111 -0.665692,-1.07721 0,-0.5961 0.296535,-1.08024 0.665692,-1.08024 0.369157,0 0.665692,0.48414 0.665692,1.08024 z"
     inkscape:connector-curvature="0" />
  <path
     id="path2403"
     style="fill:#ffffff;stroke-width:0.30258739"
     d="m 73.299688,75.374017 c 0,0.5961 -0.299562,1.08024 -0.668718,1.08024 -0.369157,0 -0.665693,-0.48414 -0.665693,-1.08024 0,-0.59609 0.296536,-1.08023 0.665693,-1.08023 0.369156,0 0.668718,0.48414 0.668718,1.08023 z"
     inkscape:connector-curvature="0" />
  <path
     id="path2427"
     style="fill:#000000;fill-opacity:0.31373004;stroke-width:0.30258739"
     d="m 85.049156,43.856517 c -5.395133,0.0756 -10.393877,4.26648 -11.685925,9.45586 2.535683,-1.66726 5.718902,-2.6658 9.171424,-2.6658 6.941355,0 12.781292,4.01534 14.487885,9.45586 2.714209,-7.25 -3.500937,-16.29736 -11.347028,-16.23684 -0.208785,-0.009 -0.41757,-0.0121 -0.626356,-0.009 z"
     inkscape:connector-curvature="0" />
  <g
     id="g3221"
     style="stroke:#000000;stroke-width:2.85969996;stroke-linecap:round"
     transform="matrix(0.42111088,0,0,0.42537736,-72.393117,-199.68397)">
    <path
       id="path2445"
       style="fill:none;stroke:#000000;stroke-width:2.85969996;stroke-linecap:round"
       d="m 340.57,672.76 c 32.74,-15.11 47.84,-1.26 47.84,-1.26"
       inkscape:connector-curvature="0" />
    <path
       id="path2447"
       style="fill:none;stroke:#000000;stroke-width:2.85969996;stroke-linecap:round"
       d="m 337.42,678.43 c 23.93,-15.11 44.7,9.44 44.7,9.44"
       inkscape:connector-curvature="0" />
    <path
       id="path2449"
       style="fill:none;stroke:#000000;stroke-width:2.85969996;stroke-linecap:round"
       d="m 337.42,681.57 c 25.18,-12.59 29.59,18.26 29.59,18.26"
       inkscape:connector-curvature="0" />
  </g>
  <g
     id="g3384"
     style="stroke:#000000;stroke-width:2.85969996;stroke-linecap:round"
     transform="matrix(-0.42111088,0,0,0.42537736,201.84486,-199.68397)">
    <path
       id="path3386"
       style="fill:none;stroke:#000000;stroke-width:2.85969996;stroke-linecap:round"
       d="m 340.57,672.76 c 32.74,-15.11 47.84,-1.26 47.84,-1.26"
       inkscape:connector-curvature="0" />
    <path
       id="path3388"
       style="fill:none;stroke:#000000;stroke-width:2.85969996;stroke-linecap:round"
       d="m 337.42,678.43 c 23.93,-15.11 44.7,9.44 44.7,9.44"
       inkscape:connector-curvature="0" />
    <path
       id="path3390"
       style="fill:none;stroke:#000000;stroke-width:2.85969996;stroke-linecap:round"
       d="m 337.42,681.57 c 25.18,-12.59 29.59,18.26 29.59,18.26"
       inkscape:connector-curvature="0" />
  </g>
  <path
     id="path3405"
     style="fill:#000000;fill-opacity:0.31373004;stroke-width:0.30258739"
     d="m 44.045539,43.856517 c 5.395133,0.0756 10.396902,4.26648 11.685925,9.45586 -2.535683,-1.66726 -5.718902,-2.6658 -9.171424,-2.6658 -6.941355,0 -12.781292,4.01534 -14.484859,9.45586 -2.716327,-7.25 3.497911,-16.29736 11.347028,-16.23684 0.208785,-0.009 0.414544,-0.0121 0.62333,-0.009 z"
     inkscape:connector-curvature="0" />
  <metadata
     id="metadata23">
    <rdf:RDF>
      <cc:Work>
        <dc:format>image/svg+xml</dc:format>
        <dc:type
           rdf:resource="http://purl.org/dc/dcmitype/StillImage" />
        <cc:license
           rdf:resource="http://creativecommons.org/publicdomain/zero/1.0/" />
        <dc:publisher>
          <cc:Agent
             rdf:about="http://openclipart.org/">
            <dc:title>Openclipart</dc:title>
          </cc:Agent>
        </dc:publisher>
        <dc:title>Simple cartoon mouse</dc:title>
        <dc:date>2008-07-04T17:34:18</dc:date>
        <dc:description>A simple cartoon mouse</dc:description>
        <dc:source>https://openclipart.org/detail/17558/simple-cartoon-mouse-by-lemmling</dc:source>
        <dc:creator>
          <cc:Agent>
            <dc:title>lemmling</dc:title>
          </cc:Agent>
        </dc:creator>
        <dc:subject>
          <rdf:Bag>
            <rdf:li>animal</rdf:li>
            <rdf:li>cartoon</rdf:li>
            <rdf:li>colour</rdf:li>
            <rdf:li>how i did it</rdf:li>
            <rdf:li>mammal</rdf:li>
            <rdf:li>mouse</rdf:li>
          </rdf:Bag>
        </dc:subject>
      </cc:Work>
      <cc:License
         rdf:about="http://creativecommons.org/publicdomain/zero/1.0/">
        <cc:permits
           rdf:resource="http://creativecommons.org/ns#Reproduction" />
        <cc:permits
           rdf:resource="http://creativecommons.org/ns#Distribution" />
        <cc:permits
           rdf:resource="http://creativecommons.org/ns#DerivativeWorks" />
      </cc:License>
    </rdf:RDF>
  </metadata>
</svg>
