<?xml version="1.0" encoding="UTF-8" standalone="no"?>
<!-- Created with Inkscape (http://www.inkscape.org/) -->

<svg
   xmlns:dc="http://purl.org/dc/elements/1.1/"
   xmlns:cc="http://creativecommons.org/ns#"
   xmlns:rdf="http://www.w3.org/1999/02/22-rdf-syntax-ns#"
   xmlns:svg="http://www.w3.org/2000/svg"
   xmlns="http://www.w3.org/2000/svg"
   xmlns:sodipodi="http://sodipodi.sourceforge.net/DTD/sodipodi-0.dtd"
   xmlns:inkscape="http://www.inkscape.org/namespaces/inkscape"
   id="svg2"
   viewBox="0 0 69.999998 69.03726"
   version="1.0"
   sodipodi:docname="souris.svg"
   width="70"
   height="69.037262"
   inkscape:version="0.92.5 (2060ec1f9f, 2020-04-08)">
  <defs
     id="defs28" />
  <sodipodi:namedview
     pagecolor="#ffffff"
     bordercolor="#666666"
     borderopacity="1"
     objecttolerance="10"
     gridtolerance="10"
     guidetolerance="10"
     inkscape:pageopacity="0"
     inkscape:pageshadow="2"
     inkscape:window-width="1884"
     inkscape:window-height="1016"
     id="namedview26"
     showgrid="false"
     fit-margin-top="0"
     fit-margin-left="0"
     fit-margin-right="0"
     fit-margin-bottom="0"
     inkscape:zoom="0.7240374"
     inkscape:cx="-78.528898"
     inkscape:cy="157.47986"
     inkscape:window-x="1920"
     inkscape:window-y="27"
     inkscape:window-maximized="1"
     inkscape:current-layer="svg2" />
  <path
     id="path3264"
     style="fill:#cccccc;fill-rule:evenodd;stroke:#000000;stroke-width:0.84724468"
     d="M 48.109315,11.004936 C 47.708992,6.071427 31.575334,-7.129278 17.441174,6.204658 3.3065913,19.538594 2.1064692,13.271739 0.77311786,13.538411 -0.56029707,13.805083 2.1002843,16.692912 5.8400648,16.20511 15.040507,15.005205 21.174135,3.537959 29.706948,3.671183 c 8.599534,0.134505 13.20219,7.600425 13.20219,7.600425 l 5.199965,-0.266672 z"
     inkscape:connector-curvature="0" />
  <path
     id="path2407"
     style="fill:#000000;fill-opacity:0.31373004;fill-rule:evenodd;stroke-width:0.21181117"
     d="m 29.694451,2.360923 c -3.82531,0.04403 -7.961982,1.550248 -11.92158,5.520221 -3.645059,3.655225 -6.328706,5.75449 -8.3334991,6.910337 v 0.410284 C 16.752788,12.099155 22.336131,3.556173 29.70716,3.6714 c 8.599534,0.134288 13.197954,7.598724 13.197954,7.598724 l 1.999498,-0.09934 C 43.362626,7.678018 37.112079,2.275138 29.694451,2.360923 Z"
     inkscape:connector-curvature="0" />
  <path
     id="path2383"
     style="fill:#cccccc;stroke:#000000;stroke-width:0.84724468;stroke-linecap:round"
     d="m 67.176557,32.072101 c 0,12.071115 -13.094167,34.268927 -21.867386,34.268927 -9.021038,0 -21.867386,-22.197812 -21.867386,-34.268927 0,-12.070485 9.796267,-21.867391 21.867386,-21.867391 12.071119,2.17e-4 21.867386,9.796906 21.867386,21.867391 z"
     inkscape:connector-curvature="0" />
  <path
     id="path3397"
     style="fill:#000000;fill-opacity:0.31373004;stroke-width:0.21181117"
     d="m 66.882139,28.503081 c 0.05296,0.618485 0.08049,1.241212 0.08049,1.872409 0,12.071122 -13.08993,34.273169 -21.863149,34.273169 -8.226746,0 -19.641251,-18.465699 -21.585677,-30.871477 1.082355,12.337997 13.187364,32.565967 21.797488,32.565967 8.773219,0 21.86315,-22.202047 21.86315,-34.273169 0,-1.215795 -0.101669,-2.406173 -0.2923,-3.566899 z"
     inkscape:connector-curvature="0" />
  <path
     id="path2386"
     style="fill:#cccccc;stroke:#000000;stroke-width:0.84724468;stroke-linecap:round"
     d="m 60.508741,49.351657 c 5.089823,-0.499877 9.067637,-4.793292 9.067637,-10.014438 0,-5.555802 -4.511579,-10.067379 -10.067386,-10.067379 -5.557925,0 -10.067385,4.511577 -10.067385,10.067379 0,0.391853 0.02118,0.779471 0.06566,1.158612"
     inkscape:connector-curvature="0" />
  <path
     id="path2388"
     style="fill:#cccccc;stroke:#000000;stroke-width:0.84724468;stroke-linecap:round"
     d="m 40.424805,40.60809 c 0.05296,-0.415149 0.08049,-0.840889 0.08049,-1.270871 0,-5.555802 -4.503106,-10.067379 -10.061031,-10.067379 -5.557926,0 -10.067809,4.511577 -10.067809,10.067379 0,5.350352 4.175221,9.728488 9.445084,10.048325"
     inkscape:connector-curvature="0" />
  <path
     id="path2390"
     style="fill:#000000;stroke-width:0.21181117"
     d="m 47.725936,61.755314 c 0,1.298409 -1.552575,2.853102 -2.351104,2.853102 -0.898079,0 -2.351104,-1.554693 -2.351104,-2.853102 0,-1.296281 1.052702,-1.150128 2.351104,-1.150128 1.298403,0 2.351104,-0.146153 2.351104,1.150128 z"
     inkscape:connector-curvature="0" />
  <path
     id="path2397"
     style="fill:#000000;stroke:#000000;stroke-width:0.42362234;stroke-linecap:round"
     d="m 40.640853,53.073179 c 0.0021,1.215795 -0.745576,2.200716 -1.666954,2.200716 -0.919261,0 -1.666954,-0.984921 -1.664836,-2.200716 -0.0021,-1.215795 0.745575,-2.200723 1.664836,-2.200723 0.921378,0 1.669072,0.984928 1.666954,2.200723 z"
     inkscape:connector-curvature="0" />
  <path
     id="path2399"
     style="fill:#000000;stroke:#000000;stroke-width:0.42362234;stroke-linecap:round"
     d="m 52.642074,53.073179 c 0,1.215795 -0.745575,2.200716 -1.666954,2.200716 -0.921378,0 -1.666954,-0.984921 -1.666954,-2.200716 0,-1.215795 0.745576,-2.200723 1.666954,-2.200723 0.921379,0 1.666954,0.984928 1.666954,2.200723 z"
     inkscape:connector-curvature="0" />
  <path
     id="path2401"
     style="fill:#ffffff;stroke-width:0.21181117"
     d="m 39.641104,52.562711 c 0,0.41727 -0.207575,0.754047 -0.465985,0.754047 -0.25841,0 -0.465984,-0.336777 -0.465984,-0.754047 0,-0.41727 0.207574,-0.756168 0.465984,-0.756168 0.25841,0 0.465985,0.338898 0.465985,0.756168 z"
     inkscape:connector-curvature="0" />
  <path
     id="path2403"
     style="fill:#ffffff;stroke-width:0.21181117"
     d="m 51.309782,52.761812 c 0,0.41727 -0.209694,0.756168 -0.468103,0.756168 -0.25841,0 -0.465985,-0.338898 -0.465985,-0.756168 0,-0.417263 0.207575,-0.756161 0.465985,-0.756161 0.258409,0 0.468103,0.338898 0.468103,0.756161 z"
     inkscape:connector-curvature="0" />
  <path
     id="path2427"
     style="fill:#000000;fill-opacity:0.31373004;stroke-width:0.21181117"
     d="m 59.534409,30.699562 c -3.776593,0.05292 -7.275714,2.986536 -8.180147,6.619102 1.774978,-1.167082 4.003231,-1.86606 6.419997,-1.86606 4.858948,0 8.946904,2.810738 10.141519,6.619102 1.899946,-5.075 -2.450656,-11.408152 -7.942919,-11.365788 -0.14615,-0.0063 -0.292299,-0.0085 -0.43845,-0.0063 z"
     inkscape:connector-curvature="0" />
  <g
     id="g3221"
     style="stroke:#000000;stroke-width:2.85969996;stroke-linecap:round"
     transform="matrix(0.29477762,0,0,0.29776415,-50.675182,-139.77878)">
    <path
       id="path2445"
       style="fill:none;stroke:#000000;stroke-width:2.85969996;stroke-linecap:round"
       d="m 340.57,672.76 c 32.74,-15.11 47.84,-1.26 47.84,-1.26"
       inkscape:connector-curvature="0" />
    <path
       id="path2447"
       style="fill:none;stroke:#000000;stroke-width:2.85969996;stroke-linecap:round"
       d="m 337.42,678.43 c 23.93,-15.11 44.7,9.44 44.7,9.44"
       inkscape:connector-curvature="0" />
    <path
       id="path2449"
       style="fill:none;stroke:#000000;stroke-width:2.85969996;stroke-linecap:round"
       d="m 337.42,681.57 c 25.18,-12.59 29.59,18.26 29.59,18.26"
       inkscape:connector-curvature="0" />
  </g>
  <g
     id="g3384"
     style="stroke:#000000;stroke-width:2.85969996;stroke-linecap:round"
     transform="matrix(-0.29477762,0,0,0.29776415,141.2914,-139.77878)">
    <path
       id="path3386"
       style="fill:none;stroke:#000000;stroke-width:2.85969996;stroke-linecap:round"
       d="m 340.57,672.76 c 32.74,-15.11 47.84,-1.26 47.84,-1.26"
       inkscape:connector-curvature="0" />
    <path
       id="path3388"
       style="fill:none;stroke:#000000;stroke-width:2.85969996;stroke-linecap:round"
       d="m 337.42,678.43 c 23.93,-15.11 44.7,9.44 44.7,9.44"
       inkscape:connector-curvature="0" />
    <path
       id="path3390"
       style="fill:none;stroke:#000000;stroke-width:2.85969996;stroke-linecap:round"
       d="m 337.42,681.57 c 25.18,-12.59 29.59,18.26 29.59,18.26"
       inkscape:connector-curvature="0" />
  </g>
  <path
     id="path3405"
     style="fill:#000000;fill-opacity:0.31373004;stroke-width:0.21181117"
     d="m 30.831877,30.699562 c 3.776593,0.05292 7.277832,2.986536 8.180148,6.619102 -1.774978,-1.167082 -4.003232,-1.86606 -6.419997,-1.86606 -4.858948,0 -8.946904,2.810738 -10.139401,6.619102 -1.901429,-5.075 2.448537,-11.408152 7.942919,-11.365788 0.14615,-0.0063 0.290181,-0.0085 0.436331,-0.0063 z"
     inkscape:connector-curvature="0" />
  <metadata
     id="metadata23">
    <rdf:RDF>
      <cc:Work>
        <dc:format>image/svg+xml</dc:format>
        <dc:type
           rdf:resource="http://purl.org/dc/dcmitype/StillImage" />
        <cc:license
           rdf:resource="http://creativecommons.org/publicdomain/zero/1.0/" />
        <dc:publisher>
          <cc:Agent
             rdf:about="http://openclipart.org/">
            <dc:title>Openclipart</dc:title>
          </cc:Agent>
        </dc:publisher>
        <dc:title>Simple cartoon mouse</dc:title>
        <dc:date>2008-07-04T17:34:18</dc:date>
        <dc:description>A simple cartoon mouse</dc:description>
        <dc:source>https://openclipart.org/detail/17558/simple-cartoon-mouse-by-lemmling</dc:source>
        <dc:creator>
          <cc:Agent>
            <dc:title>lemmling</dc:title>
          </cc:Agent>
        </dc:creator>
        <dc:subject>
          <rdf:Bag>
            <rdf:li>animal</rdf:li>
            <rdf:li>cartoon</rdf:li>
            <rdf:li>colour</rdf:li>
            <rdf:li>how i did it</rdf:li>
            <rdf:li>mammal</rdf:li>
            <rdf:li>mouse</rdf:li>
          </rdf:Bag>
        </dc:subject>
      </cc:Work>
      <cc:License
         rdf:about="http://creativecommons.org/publicdomain/zero/1.0/">
        <cc:permits
           rdf:resource="http://creativecommons.org/ns#Reproduction" />
        <cc:permits
           rdf:resource="http://creativecommons.org/ns#Distribution" />
        <cc:permits
           rdf:resource="http://creativecommons.org/ns#DerivativeWorks" />
      </cc:License>
    </rdf:RDF>
  </metadata>
</svg>
